<svg width="20" height="21" viewBox="0 0 20 21" fill="none" xmlns="http://www.w3.org/2000/svg">
<path fill-rule="evenodd" clip-rule="evenodd" d="M10 0.5C4.47715 0.5 0 4.97715 0 10.5C0 16.0228 4.47715 20.5 10 20.5C15.5228 20.5 20 16.0228 20 10.5C20 4.97715 15.5228 0.5 10 0.5ZM7.80137 5.19889C8.37026 5.173 8.55204 5.16667 10.0005 5.16667H9.99883C11.4477 5.16667 11.6288 5.173 12.1977 5.19889C12.7655 5.22489 13.1533 5.31478 13.4933 5.44667C13.8444 5.58278 14.1411 5.76501 14.4378 6.06168C14.7344 6.35812 14.9167 6.65568 15.0533 7.00646C15.1844 7.34558 15.2744 7.73314 15.3011 8.30092C15.3267 8.86982 15.3333 9.0516 15.3333 10.5001C15.3333 11.9485 15.3267 12.1299 15.3011 12.6987C15.2744 13.2663 15.1844 13.654 15.0533 13.9932C14.9167 14.3439 14.7344 14.6414 14.4378 14.9379C14.1414 15.2345 13.8443 15.4172 13.4936 15.5534C13.1543 15.6853 12.7663 15.7752 12.1985 15.8012C11.6296 15.8271 11.4484 15.8334 9.99983 15.8334C8.55148 15.8334 8.36982 15.8271 7.80092 15.8012C7.23325 15.7752 6.84558 15.6853 6.50624 15.5534C6.15568 15.4172 5.85812 15.2345 5.56179 14.9379C5.26523 14.6414 5.083 14.3439 4.94667 13.9931C4.81489 13.654 4.725 13.2664 4.69889 12.6986C4.67311 12.1297 4.66667 11.9485 4.66667 10.5001C4.66667 9.0516 4.67333 8.86971 4.69878 8.30081C4.72433 7.73325 4.81433 7.34558 4.94656 7.00635C5.08323 6.65568 5.26545 6.35812 5.56212 6.06168C5.85857 5.76512 6.15613 5.58289 6.50691 5.44667C6.84602 5.31478 7.23358 5.22489 7.80137 5.19889Z" fill="#4E87D0"/>
<path fill-rule="evenodd" clip-rule="evenodd" d="M9.52224 6.1278C9.61514 6.12765 9.71508 6.1277 9.82293 6.12775L10.0007 6.1278C11.4247 6.1278 11.5935 6.13291 12.1558 6.15847C12.6758 6.18224 12.9581 6.26913 13.1461 6.34213C13.3949 6.4388 13.5724 6.55436 13.7589 6.74103C13.9456 6.9277 14.0612 7.10548 14.1581 7.35437C14.2311 7.54215 14.3181 7.82437 14.3417 8.34438C14.3673 8.90661 14.3728 9.0755 14.3728 10.4988C14.3728 11.9222 14.3673 12.0911 14.3417 12.6533C14.318 13.1733 14.2311 13.4555 14.1581 13.6433C14.0614 13.8922 13.9456 14.0694 13.7589 14.256C13.5723 14.4427 13.3951 14.5582 13.1461 14.6549C12.9583 14.7282 12.6758 14.8149 12.1558 14.8387C11.5936 14.8642 11.4247 14.8698 10.0007 14.8698C8.57656 14.8698 8.40778 14.8642 7.84555 14.8387C7.32555 14.8147 7.04332 14.7278 6.85521 14.6548C6.60632 14.5581 6.42854 14.4426 6.24187 14.2559C6.0552 14.0692 5.93964 13.8919 5.84275 13.6429C5.76975 13.4551 5.68275 13.1729 5.65908 12.6529C5.63353 12.0906 5.62842 11.9217 5.62842 10.4975C5.62842 9.07327 5.63353 8.90527 5.65908 8.34304C5.68286 7.82304 5.76975 7.54081 5.84275 7.35281C5.93942 7.10392 6.0552 6.92614 6.24187 6.73947C6.42854 6.5528 6.60632 6.43725 6.85521 6.34036C7.04321 6.26702 7.32555 6.18035 7.84555 6.15647C8.33756 6.13424 8.52823 6.12758 9.52224 6.12646V6.1278ZM12.8476 7.01336C12.4943 7.01336 12.2076 7.2997 12.2076 7.65315C12.2076 8.00648 12.4943 8.29315 12.8476 8.29315C13.2009 8.29315 13.4876 8.00648 13.4876 7.65315C13.4876 7.29981 13.2009 7.01314 12.8476 7.01314V7.01336ZM7.26177 10.5001C7.26177 8.98753 8.48805 7.76121 10.0006 7.76115C11.5131 7.76115 12.7392 8.98749 12.7392 10.5001C12.7392 12.0126 11.5133 13.2384 10.0007 13.2384C8.48811 13.2384 7.26177 12.0126 7.26177 10.5001Z" fill="#4E87D0"/>
<path d="M10.0005 8.72217C10.9822 8.72217 11.7782 9.51807 11.7782 10.5C11.7782 11.4818 10.9822 12.2778 10.0005 12.2778C9.01855 12.2778 8.22266 11.4818 8.22266 10.5C8.22266 9.51807 9.01855 8.72217 10.0005 8.72217Z" fill="#4E87D0"/>
</svg>
