<svg width="20" height="21" viewBox="0 0 20 21" fill="none" xmlns="http://www.w3.org/2000/svg">
<path fill-rule="evenodd" clip-rule="evenodd" d="M10 0.5C4.47715 0.5 0 4.97715 0 10.5C0 16.0228 4.47715 20.5 10 20.5C15.5228 20.5 20 16.0228 20 10.5C20 4.97715 15.5228 0.5 10 0.5ZM4.80067 8.78244H7.06689V15.5915H4.80067V8.78244ZM7.21615 6.67612C7.20144 6.0085 6.72402 5.5 5.94876 5.5C5.1735 5.5 4.66667 6.0085 4.66667 6.67612C4.66667 7.32992 5.15852 7.85306 5.91935 7.85306H5.93383C6.72402 7.85306 7.21615 7.32992 7.21615 6.67612ZM12.6305 8.62255C14.1218 8.62255 15.2397 9.59594 15.2397 11.6874L15.2397 15.5915H12.9735V11.9486C12.9735 11.0336 12.6456 10.4093 11.8252 10.4093C11.1991 10.4093 10.8262 10.8302 10.6624 11.2367C10.6025 11.3824 10.5878 11.5854 10.5878 11.7889V15.5917H8.32129C8.32129 15.5917 8.35116 9.42154 8.32129 8.78262H10.5878V9.74706C10.8886 9.28344 11.4273 8.62255 12.6305 8.62255Z" fill="#4E87D0"/>
</svg>
