<svg width="20" height="20" viewBox="0 0 20 20" fill="none" xmlns="http://www.w3.org/2000/svg">
<path d="M4.1665 15C2.78579 15 1.6665 13.8807 1.6665 12.5V6.5C1.6665 5.09987 1.6665 4.3998 1.93899 3.86502C2.17867 3.39462 2.56112 3.01217 3.03153 2.77248C3.56631 2.5 4.26637 2.5 5.6665 2.5H14.3332C15.7333 2.5 16.4334 2.5 16.9681 2.77248C17.4386 3.01217 17.821 3.39462 18.0607 3.86502C18.3332 4.3998 18.3332 5.09987 18.3332 6.5V12.5C18.3332 13.8807 17.2139 15 15.8332 15M7.25653 17.5H12.7431C13.1972 17.5 13.4242 17.5 13.5388 17.4074C13.6384 17.3269 13.6955 17.2051 13.6935 17.0771C13.6913 16.9298 13.546 16.7554 13.2553 16.4065L10.512 13.1146C10.3361 12.9035 10.2482 12.798 10.1429 12.7595C10.0505 12.7257 9.94917 12.7257 9.8568 12.7595C9.75151 12.798 9.66357 12.9035 9.48769 13.1146L6.74438 16.4065C6.45371 16.7554 6.30837 16.9298 6.30615 17.0771C6.30422 17.2051 6.36128 17.3269 6.46088 17.4074C6.57546 17.5 6.80248 17.5 7.25653 17.5Z" stroke="#4E87D0" stroke-width="2" stroke-linecap="round" stroke-linejoin="round"/>
</svg>
