<svg width="20" height="21" viewBox="0 0 20 21" fill="none" xmlns="http://www.w3.org/2000/svg">
<g clip-path="url(#clip0_374_2366)">
<path d="M20 10.5C20 4.97656 15.5234 0.5 10 0.5C4.47656 0.5 0 4.97656 0 10.5C0 15.4922 3.65625 19.6289 8.4375 20.3789V13.3906H5.89844V10.5H8.4375V8.29688C8.4375 5.79102 9.92969 4.40625 12.2148 4.40625C13.3086 4.40625 14.4531 4.60156 14.4531 4.60156V7.0625H13.1914C11.9492 7.0625 11.5625 7.83398 11.5625 8.625V10.5H14.3359L13.8926 13.3906H11.5625V20.3789C16.3438 19.6289 20 15.4922 20 10.5Z" fill="#4E87D0"/>
</g>
<defs>
<clipPath id="clip0_374_2366">
<rect width="20" height="20" fill="white" transform="translate(0 0.5)"/>
</clipPath>
</defs>
</svg>
