<svg width="75" height="32" viewBox="0 0 75 32" fill="none" xmlns="http://www.w3.org/2000/svg">
<path d="M74.1024 12.5077C74.0074 13.5524 73.9789 14.8061 74.0169 16.2686C74.0739 17.7312 74.0454 19.5641 73.9314 21.7675C73.8365 23.9518 73.618 25.7088 73.2761 27.0384C73.0482 27.8931 72.6873 28.6624 72.1935 29.3462C71.7186 30.049 71.0348 30.6568 70.1421 31.1696C69.2493 31.6825 68.2331 31.9579 67.0935 31.9959C65.7259 32.0529 64.5862 31.521 63.6745 30.4004C62.7818 29.2987 62.4589 28.0356 62.7058 26.611C63.4846 27.7887 64.3773 28.4725 65.384 28.6624C66.4097 28.8713 67.3119 28.6244 68.0907 27.9216C68.8884 27.2378 69.3918 26.2881 69.6007 25.0725C69.7337 24.3887 69.8382 23.173 69.9141 21.4256C69.3253 22.6792 68.3756 23.382 67.065 23.5339C65.5834 23.6669 64.2728 23.1066 63.1332 21.8529C62.0125 20.5803 61.4142 18.7569 61.3382 16.3826C61.3002 15.11 61.4522 13.9513 61.7941 12.9066C62.155 11.8429 62.6298 10.9882 63.2187 10.3424C63.8265 9.6776 64.4913 9.17425 65.2131 8.83235C65.9538 8.47146 66.7041 8.29102 67.4639 8.29102C68.5845 8.29102 69.4488 8.55694 70.0566 9.08878C70.6644 9.60162 71.0063 10.3234 71.0823 11.2541C70.1516 10.3234 69.2303 9.91503 68.3186 10.029C66.5711 10.3139 65.6404 12.3653 65.5265 16.1831C65.5265 16.734 65.5455 17.2658 65.5834 17.7787C65.6214 18.2725 65.6974 18.8423 65.8114 19.4882C65.9443 20.115 66.1723 20.6183 66.4952 20.9982C66.8371 21.3591 67.2549 21.53 67.7488 21.511C68.5276 21.4731 69.0879 20.8557 69.4298 19.6591C69.7907 18.4435 69.9331 17.0569 69.8572 15.4993C69.8002 14.2077 69.7147 13.2485 69.6007 12.6217C71.0443 12.7547 72.5449 12.7167 74.1024 12.5077ZM69.8572 15.4993V15.4709V15.4993Z" fill="#4E87D0"/>
<path d="M60.0332 12.3366C59.9573 12.9444 59.8908 13.5237 59.8338 14.0745C59.7958 14.6064 59.7483 15.3661 59.6913 16.3539C59.6343 17.3226 59.6438 18.2058 59.7198 19.0036C59.7958 19.8013 59.9098 20.5991 60.0617 21.3968C60.2327 22.1946 60.5176 22.8499 60.9165 23.3627C61.3343 23.8756 61.8377 24.1795 62.4265 24.2745C62.0276 24.6354 61.5433 24.9298 60.9734 25.1577C60.4036 25.3856 59.8243 25.5091 59.2355 25.5281C58.6466 25.5661 58.0863 25.3951 57.5545 25.0152C57.0226 24.6354 56.6427 24.056 56.4148 23.2773C56.2629 22.8024 56.1584 22.1376 56.1014 21.2829C55.3606 22.6125 54.183 23.2773 52.5685 23.2773C52.0746 23.2773 51.5808 23.1728 51.0869 22.9639C50.5931 22.7549 50.0802 22.4035 49.5484 21.9097C49.0165 21.4158 48.5797 20.6656 48.2378 19.6589C47.9149 18.6332 47.7534 17.427 47.7534 16.0404C47.7534 14.7488 47.9149 13.6092 48.2378 12.6215C48.5797 11.6338 49.026 10.8645 49.5769 10.3137C50.1467 9.76283 50.726 9.35446 51.3149 9.08854C51.9037 8.80362 52.5115 8.62318 53.1383 8.5472C54.278 8.41424 55.2277 8.70865 55.9874 9.43043C56.7662 10.1332 57.0701 10.95 56.8992 11.8807C56.7092 11.6338 56.4148 11.4438 56.0159 11.3109C55.6171 11.1779 55.1707 11.1494 54.6768 11.2254C54.202 11.3014 53.7366 11.4913 53.2808 11.7952C52.8249 12.0801 52.4355 12.6025 52.1126 13.3623C51.7897 14.122 51.6188 15.0527 51.5998 16.1544C51.5808 16.8002 51.6473 17.4555 51.7992 18.1203C51.9702 18.7851 52.2551 19.3644 52.6539 19.8583C53.0718 20.3521 53.5657 20.5801 54.1355 20.5421C54.5914 20.5231 54.9807 20.2477 55.3036 19.7158C55.6455 19.184 55.8735 18.5002 55.9874 17.6645C56.0254 14.9673 55.9969 13.2008 55.902 12.3651C57.4215 12.498 58.7986 12.4885 60.0332 12.3366Z" fill="#4E87D0"/>
<path d="M40.231 0C41.8455 0.189943 43.2511 0.189943 44.4477 0C44.2957 1.0067 44.2198 3.96981 44.2198 8.88933C44.2388 13.7899 44.2957 16.9144 44.3907 18.263C44.5427 20.1624 45.3309 21.511 46.7555 22.3088C46.1857 23.0686 45.3974 23.4864 44.3907 23.5624C43.403 23.6384 42.6147 23.42 42.0259 22.9071C41.0952 22.1853 40.6013 20.7323 40.5444 18.5479C40.5064 17.1803 40.4779 14.996 40.4589 11.9949C40.4589 8.9748 40.4399 6.36309 40.4019 4.15975C40.3829 1.95641 40.3259 0.569829 40.231 0Z" fill="#4E87D0"/>
<path d="M37.3126 8.14812C37.9394 8.30007 38.4047 8.66097 38.7087 9.23079C39.0126 9.80062 39.136 10.4084 39.079 11.0542C39.0411 11.6811 38.8036 12.2794 38.3668 12.8492C37.9299 13.4 37.3506 13.7419 36.6288 13.8749C36.8187 13.59 36.9422 13.2291 36.9992 12.7922C37.0562 12.3364 36.9992 11.8995 36.8282 11.4816C36.6763 11.0637 36.4103 10.8073 36.0305 10.7123C35.2897 10.5034 34.7104 10.7788 34.2925 11.5386C33.8936 12.2794 33.6752 13.3051 33.6372 14.6157C33.6372 14.7676 33.6467 15.0051 33.6657 15.328C33.7417 18.8419 33.9411 21.2447 34.264 22.5363C34.302 22.6313 34.3305 22.7262 34.3495 22.8212C32.488 22.5743 30.902 22.5648 29.5914 22.7927C29.7434 21.0642 29.8383 19.1363 29.8763 17.009C29.9333 14.8626 29.9143 13.2481 29.8193 12.1654C29.7054 10.9308 29.4869 10.0665 29.164 9.57269C28.8601 9.07884 28.3473 8.68946 27.6255 8.40454C28.1383 7.98667 28.7841 7.74924 29.5629 7.69226C30.3417 7.61628 31.1109 7.83471 31.8707 8.34756C32.6305 8.8604 33.1433 9.67716 33.4093 10.7978C33.7701 9.81012 34.283 9.06934 34.9478 8.57549C35.6316 8.08164 36.4198 7.93918 37.3126 8.14812Z" fill="#4E87D0"/>
<path d="M27.063 12.3366C26.987 12.9444 26.9206 13.5237 26.8636 14.0745C26.8256 14.6064 26.7781 15.3661 26.7211 16.3539C26.6641 17.3226 26.6736 18.2058 26.7496 19.0036C26.8256 19.8013 26.9396 20.5991 27.0915 21.3968C27.2625 22.1946 27.5474 22.8499 27.9462 23.3627C28.3641 23.8756 28.8675 24.1795 29.4563 24.2745C29.0574 24.6354 28.5731 24.9298 28.0032 25.1577C27.4334 25.3856 26.8541 25.5091 26.2653 25.5281C25.6764 25.5661 25.1161 25.3951 24.5843 25.0152C24.0524 24.6354 23.6725 24.056 23.4446 23.2773C23.2926 22.8024 23.1882 22.1376 23.1312 21.2829C22.3904 22.6125 21.2128 23.2773 19.5983 23.2773C19.1044 23.2773 18.6106 23.1728 18.1167 22.9639C17.6229 22.7549 17.11 22.4035 16.5782 21.9097C16.0463 21.4158 15.6095 20.6656 15.2676 19.6589C14.9447 18.6332 14.7832 17.427 14.7832 16.0404C14.7832 14.7488 14.9447 13.6092 15.2676 12.6215C15.6095 11.6338 16.0558 10.8645 16.6067 10.3137C17.1765 9.76283 17.7558 9.35446 18.3446 9.08854C18.9335 8.80362 19.5413 8.62318 20.1681 8.5472C21.3077 8.41424 22.2575 8.70865 23.0172 9.43043C23.796 10.1332 24.0999 10.95 23.929 11.8807C23.739 11.6338 23.4446 11.4438 23.0457 11.3109C22.6468 11.1779 22.2005 11.1494 21.7066 11.2254C21.2318 11.3014 20.7664 11.4913 20.3105 11.7952C19.8547 12.0801 19.4653 12.6025 19.1424 13.3623C18.8195 14.122 18.6485 15.0527 18.6295 16.1544C18.6106 16.8002 18.677 17.4555 18.829 18.1203C18.9999 18.7851 19.2849 19.3644 19.6837 19.8583C20.1016 20.3521 20.5955 20.5801 21.1653 20.5421C21.6211 20.5231 22.0105 20.2477 22.3334 19.7158C22.6753 19.184 22.9033 18.5002 23.0172 17.6645C23.0552 14.9673 23.0267 13.2008 22.9318 12.3651C24.4513 12.498 25.8284 12.4885 27.063 12.3366Z" fill="#4E87D0"/>
<path d="M0.341897 2.7636C2.10837 2.95354 3.63741 2.95354 4.92902 2.7636C4.68209 4.01722 4.61561 7.43619 4.72958 13.0205C4.84354 18.6048 5.01449 21.9098 5.24242 22.9355C4.57762 22.7646 3.70389 22.6981 2.62121 22.7361C1.53854 22.7741 0.6648 22.8691 0 23.021C0.303909 21.8244 0.493852 18.4814 0.569829 12.992C0.645806 7.48368 0.569829 4.0742 0.341897 2.7636ZM14.3312 2.73511C14.2172 4.57755 13.9038 6.16358 13.391 7.49318C12.8971 8.82278 12.3368 9.83897 11.71 10.5418C11.1022 11.2446 10.2759 12.0043 9.23123 12.8211C9.42117 14.8535 10.3899 17.0473 12.1374 19.4026C13.9038 21.7389 15.6703 23.2679 17.4368 23.9897C15.7463 24.8445 14.1602 24.9869 12.6787 24.4171C11.2161 23.8663 9.93402 22.8976 8.83235 21.511C7.73068 20.1054 6.85694 18.5479 6.21113 16.8384C5.58432 15.1289 5.26142 13.5524 5.24242 12.1088C6.74297 11.273 7.92062 10.0384 8.77536 8.4049C9.6491 6.7524 9.991 4.91945 9.80105 2.90606C11.1307 3.11499 12.6407 3.05801 14.3312 2.73511Z" fill="#4E87D0"/>
</svg>
