<svg width="548" height="402" viewBox="0 0 548 402" fill="none" xmlns="http://www.w3.org/2000/svg">
<g clip-path="url(#clip0_231_21701)">
<path d="M548 188.558C543.353 192.113 537.932 193.504 532.201 193.504C524.147 193.349 516.248 193.813 508.193 193.504C500.759 193.195 493.324 191.649 485.889 191.804C469.936 192.113 454.137 193.349 438.338 193.968C435.55 194.122 432.607 194.122 429.974 193.504C424.088 192.268 419.441 193.504 415.879 199.532C418.822 207.723 422.23 216.842 425.482 225.806C425.172 225.961 424.708 226.115 424.398 226.27C420.061 219.006 415.724 211.742 411.387 204.632C410.303 202.932 409.374 201.077 408.135 199.377C404.727 194.74 403.643 194.586 397.757 196.441C396.208 197.059 394.04 197.677 392.646 197.059C388.309 195.05 386.605 196.904 385.211 200.614C382.423 207.569 379.325 214.369 376.382 221.17C375.298 223.797 374.059 226.27 371.735 228.434C374.214 217.615 376.692 206.796 379.17 195.668C372.51 192.422 365.85 192.268 358.88 192.886C357.331 193.04 355.472 193.659 354.388 193.04C346.798 188.713 340.138 193.813 332.393 194.74C333.323 198.141 333.942 200.768 334.717 203.396C341.842 226.424 349.122 249.608 356.401 272.637C358.26 278.51 360.428 284.228 362.442 289.947C368.328 290.102 374.214 290.411 380.254 290.565C391.406 290.874 402.404 291.183 413.556 291.493C413.865 291.493 414.02 291.493 414.33 291.493C418.357 291.956 423.004 293.811 426.412 292.574C429.664 291.338 431.833 287.01 434.621 283.919C433.072 279.592 431.368 274.955 429.664 270.318C428.115 265.991 426.412 261.818 425.947 256.872C427.341 259.19 428.89 261.354 430.284 263.672C434.311 270.318 438.028 276.964 442.21 283.456C445.463 288.401 446.702 288.401 452.278 286.547C454.137 285.928 456.46 285.619 458.009 286.238C462.191 288.092 463.585 285.774 464.824 282.683C467.612 275.728 470.555 268.927 473.498 262.127C474.582 259.499 475.821 257.027 478.145 254.863C475.667 265.682 473.343 276.346 470.865 287.01C476.906 292.111 484.031 292.884 491.155 293.038C505.87 293.038 520.585 293.965 535.144 295.975C538.862 296.438 542.734 295.975 548.155 295.975C543.818 300.611 539.791 301.539 535.454 301.693C529.568 301.848 523.527 301.075 517.797 301.848C506.644 303.393 495.802 300.148 484.805 299.993C477.061 299.993 474.427 303.857 476.906 311.43C479.384 319.003 482.017 326.422 483.721 334.459C482.637 332.913 481.397 331.522 480.468 329.977C477.525 325.186 474.582 320.24 471.484 315.449C469.626 312.667 468.696 308.185 463.585 310.657C462.966 310.967 461.572 310.039 460.952 309.421C458.938 307.412 457.235 308.339 454.756 308.803C449.955 310.039 444.843 310.503 439.887 310.503C436.634 310.503 435.24 311.739 434.311 314.367C431.368 321.94 428.425 329.668 425.482 337.241C425.018 337.086 424.553 337.087 424.088 336.932C424.863 330.441 425.792 323.795 426.566 317.303C427.031 313.439 427.496 309.576 427.806 305.866C427.96 303.084 426.721 301.384 423.778 301.384C404.727 301.384 385.676 301.384 366.005 301.384C377.776 335.695 393.42 367.534 406.431 400.454C399.461 402.155 355.472 402.155 348.347 400.609C348.347 398.291 348.502 395.663 348.347 393.19C348.037 390.717 348.037 387.781 346.798 385.772C345.094 382.99 344.475 380.826 346.953 378.353C347.573 377.735 348.037 376.189 347.728 375.571C343.081 369.234 346.798 360.115 339.983 354.551C338.899 353.624 338.434 351.306 338.279 349.606C338.124 344.66 338.124 340.023 335.027 335.695C333.942 334.15 334.872 331.368 334.872 328.277C333.323 329.513 332.084 330.595 330.535 331.986C328.366 316.994 328.831 317.458 322.326 311.121C324.804 309.112 330.845 309.266 327.127 303.084C304.823 304.012 282.209 304.63 258.976 303.084C259.285 304.166 259.595 305.557 260.06 306.794C260.525 308.03 261.919 309.112 261.764 310.194C260.989 316.531 263.313 322.095 265.326 327.968C267.03 333.223 266.41 339.405 266.256 345.278C266.101 351.306 266.41 357.024 268.734 362.743C270.283 366.761 270.747 371.089 269.044 375.571C268.269 377.735 268.734 380.671 269.044 383.144C269.508 387.008 270.592 390.717 271.057 394.581C271.367 396.9 272.296 399.527 269.353 402.155C266.72 398.136 267.34 393.963 266.72 390.254C263.003 366.607 259.595 342.96 256.188 319.313C255.568 314.985 255.103 310.657 254.019 306.33C252.935 302.002 252.161 302.311 247.669 303.548C243.796 304.63 239.614 304.321 235.587 304.321C232.335 304.475 229.082 304.166 225.829 304.166C225.52 304.166 225.365 304.166 225.055 304.012C214.213 301.075 203.215 305.403 192.218 302.93C191.134 302.621 188.811 303.702 188.656 304.63C187.726 308.494 184.784 309.73 180.911 310.812C183.699 323.022 186.332 334.923 189.12 346.824C188.656 346.978 188.191 347.133 187.881 347.287C185.558 341.723 183.08 336.005 180.756 330.441C178.588 325.186 176.11 320.085 174.096 314.83C172.857 311.739 171.153 310.503 167.591 311.43C165.577 312.048 163.099 311.585 161.085 310.967C155.045 308.803 153.806 308.803 150.088 314.058C144.512 321.785 139.246 329.668 133.67 337.55C132.121 339.868 130.417 342.032 127.474 343.732C132.431 333.532 137.387 323.331 142.189 313.285C141.879 312.667 141.724 312.203 141.569 311.739C137.852 304.166 130.262 305.403 123.912 304.012C121.898 303.702 119.575 305.712 117.871 302.93C117.716 302.621 116.322 302.466 115.858 302.775C111.366 306.33 106.254 304.166 101.453 304.63C97.5806 305.093 93.8632 306.175 90.1459 306.794C89.0616 306.948 87.3578 306.948 86.7383 306.33C85.1894 304.784 84.7247 303.702 81.9367 305.093C79.1487 306.639 77.5998 303.702 76.8253 301.075C70.7846 307.257 68.3064 307.566 66.6026 302.002C65.0537 303.239 63.8146 304.63 62.2657 305.712C61.6461 306.175 60.0972 306.021 59.4777 305.403C56.3799 303.084 56.3799 302.93 53.7468 304.012C52.043 304.63 50.3392 305.557 50.3392 302.157C50.3392 301.693 46.6218 301.23 44.6083 300.766C41.8202 299.993 41.3556 302.311 39.9616 303.857C38.5676 305.248 36.3991 305.712 36.8638 302.466C37.1735 299.993 35.6246 299.993 34.0758 300.148C26.9508 300.766 19.9808 299.993 13.1656 297.984C12.0814 297.675 10.8423 298.293 9.60317 298.293C7.12493 298.293 4.80158 298.293 2.32335 297.52C5.42114 294.12 9.1385 293.811 13.1656 293.811C28.8095 293.811 44.4534 293.656 60.0972 293.502C67.2222 293.347 74.3471 292.884 81.6269 292.42C82.4014 292.42 83.1758 292.111 83.9503 292.42C92.3143 294.584 100.678 291.647 109.197 292.265C117.406 292.729 125.771 292.111 133.98 291.802C134.754 291.802 135.374 291.338 136.458 291.029C136.303 286.392 132.741 283.765 130.572 280.519C128.404 277.119 125.925 273.719 124.067 269.546C125.461 270.318 126.855 271.091 128.094 272.018C131.966 275.11 135.683 278.201 139.401 281.292C142.499 283.765 145.287 286.547 150.398 285.001C153.186 284.074 156.903 285.156 160.001 285.928C162.944 286.701 165.732 288.092 168.985 289.483C171.308 288.247 173.477 284.074 177.813 286.856C178.123 287.01 180.137 285.31 180.911 284.074C185.248 276.81 189.43 269.391 193.767 261.972C194.851 259.963 196.09 258.108 198.259 256.563C194.542 267.536 190.824 278.51 186.797 290.411C208.791 292.111 230.166 290.72 252.315 292.111C247.824 259.654 239.15 228.588 237.291 195.668C234.193 195.359 231.25 195.204 228.308 194.895C225.829 194.74 223.351 194.431 220.873 194.122C219.634 193.968 218.395 193.659 217.155 193.659C211.115 193.968 205.074 195.05 199.033 194.74C192.218 194.431 185.403 194.895 178.743 195.977C174.251 196.75 170.069 194.895 165.422 195.668C159.072 196.75 152.257 195.513 145.751 195.204C142.034 194.895 138.781 194.895 136.458 198.913C135.529 200.614 132.741 201.232 130.262 202.623C132.895 214.215 135.683 226.424 138.626 238.48C138.162 238.634 137.852 238.789 137.387 238.943C134.754 232.916 132.121 226.734 129.488 220.706C127.319 215.451 125.151 210.196 122.828 205.096C121.743 202.777 120.04 201.077 117.406 202.623C114.773 204.168 112.45 203.241 110.127 202.314C104.086 200.15 102.847 200.459 99.1295 205.559C94.6376 212.051 90.3007 218.851 85.8089 225.497C84.7247 227.043 83.4856 228.588 81.0073 229.361C84.5698 221.015 88.1323 212.669 91.6947 204.323C90.3007 202.777 88.4421 201.386 87.6676 199.686C86.2736 196.904 85.0345 195.359 81.472 196.595C80.5427 196.904 78.8389 194.895 76.9802 193.504C75.1215 195.359 72.6433 197.986 68.9259 197.059C67.8417 196.75 66.9124 195.05 65.983 195.05C65.0537 195.05 64.1244 196.595 62.8852 197.059C61.1815 197.522 58.7032 198.604 60.0972 194.895C60.0972 194.895 58.7032 193.813 58.0837 193.968C55.9152 194.586 53.9016 195.668 50.4941 197.059C51.5783 195.05 52.043 194.122 52.3527 193.349C50.1843 193.04 48.0158 192.731 45.8474 192.577C44.1436 192.422 42.4398 192.113 41.3556 194.431C40.8909 195.359 39.0322 195.668 37.7931 196.286C37.6382 194.895 37.4833 193.504 37.4833 192.577C31.4426 191.958 25.4019 191.34 19.5161 190.877C13.9401 190.413 8.36405 190.104 2.78802 189.795C2.78802 189.176 2.63313 188.713 2.63313 188.095C5.11136 187.322 7.5896 186.085 10.0678 186.085C16.883 185.776 23.6981 185.931 30.5133 185.776C41.0458 185.622 51.5783 185.158 62.1108 185.003C69.7004 184.849 77.29 184.849 85.1894 184.694C85.8089 178.512 81.472 175.73 79.3036 172.021C77.1351 168.466 74.502 165.066 73.108 160.893C78.8389 165.529 84.7247 170.012 90.3007 174.803C92.6241 176.657 94.7925 177.121 97.8903 177.276C103.776 177.585 110.127 176.503 115.548 180.521C116.322 181.14 118.181 180.367 119.575 180.058C122.053 179.439 124.531 178.821 128.249 177.894C130.107 173.103 132.586 167.075 134.909 160.893C135.219 161.047 135.374 161.202 135.683 161.202C135.683 167.075 135.838 172.794 135.683 178.667C135.683 181.758 136.458 183.458 140.02 183.612C144.977 183.612 150.088 184.231 155.045 184.231C167.746 184.076 180.601 183.612 193.302 183.458C204.609 183.303 215.916 183.458 227.223 183.458C229.237 183.458 231.25 183.458 233.729 183.458C231.405 170.321 229.392 157.956 224.435 146.364C219.479 134.464 217.93 122.099 217.31 109.426C217.001 104.325 216.226 99.2249 215.452 94.1246C214.987 91.0335 213.438 88.8697 209.876 89.1788C200.582 89.797 191.134 88.7151 181.841 89.797C176.884 90.4152 175.955 92.1153 178.743 96.2884C182.15 101.389 185.713 106.334 188.656 112.208C187.262 111.435 185.868 110.662 184.629 109.735C182.77 108.344 180.911 106.953 179.207 105.253C172.547 98.2976 164.648 95.2065 155.2 96.752C154.27 96.9066 153.186 96.5975 152.257 96.1338C147.92 94.2791 143.738 91.3426 139.401 96.2884C133.36 94.1246 133.05 99.0704 131.656 102.625C130.262 106.18 128.868 109.58 125.925 112.826C125.925 105.253 125.925 97.8339 125.925 90.2607C122.828 89.6424 120.04 91.9608 118.336 88.7151C118.181 88.406 116.787 88.2514 116.322 88.5606C111.83 91.188 107.029 90.1061 102.382 90.2607C99.2843 90.4152 96.1866 90.5698 93.2436 91.6517C90.1459 92.7336 87.5127 93.8155 85.3443 90.2607C85.1894 90.1061 84.1051 90.4152 83.4856 90.7243C79.6133 92.579 78.3742 89.9516 77.5998 88.0969C74.6569 89.1788 71.8689 90.5698 68.7711 91.3426C68.1515 91.4971 66.7575 88.8697 65.983 88.8697C64.7439 89.0242 63.6597 90.7243 62.2657 91.188C61.4912 91.4971 60.407 90.5698 59.4777 90.2607C61.0266 86.5513 58.2386 87.7878 56.9994 88.2514C55.1408 88.8697 53.2821 89.797 50.0294 91.3426C51.1136 89.1788 51.5783 88.2514 52.043 87.4787C49.8745 87.1695 47.7061 86.7059 45.5376 86.7059C44.1436 86.7059 42.2849 87.015 41.5105 87.9423C40.4262 89.3333 39.8067 91.6517 37.6382 90.1061C36.8638 89.6424 37.1735 87.3241 37.0187 85.4694C28.9644 87.015 20.9101 86.3968 13.1656 83.7693C12.0814 83.4602 10.6874 84.0784 9.44828 84.3875C6.0407 83.4602 6.0407 83.4602 0 81.1419C4.02713 80.06 6.81515 78.9781 9.60317 78.8235C15.489 78.3599 21.2199 78.5144 27.1057 78.3599C38.7224 78.2053 50.3392 77.7416 61.801 77.7416C70.9395 77.7416 80.078 78.3599 89.2165 78.2053C99.749 78.0508 110.282 77.1234 120.659 76.5052C121.898 76.3506 123.137 75.2687 124.222 74.496C126.235 73.105 128.094 71.4048 130.882 69.3956C128.404 58.7313 125.771 47.1396 123.137 35.3933C123.602 35.2388 124.067 35.0842 124.531 34.9296C127.784 42.6574 131.192 50.3852 134.444 58.113C135.838 61.3587 137.387 64.7589 138.781 68.0046C139.711 70.1684 141.414 71.4048 143.738 70.1684C146.681 68.6228 149.004 69.3956 151.792 70.6321C156.903 73.105 159.382 72.1776 161.24 66.9227C162.789 62.286 163.873 57.4948 165.113 52.8581C166.352 48.2215 167.591 43.4302 169.604 38.639C169.759 40.1845 170.224 41.7301 170.224 43.1211C170.069 49.3033 170.843 55.7947 169.449 61.6678C167.901 68.1592 172.392 70.9412 175.18 74.8051C175.8 75.7324 177.968 75.7324 179.517 75.887C188.966 76.3506 198.569 76.6597 208.017 76.9689C213.128 77.1234 215.607 75.1142 216.226 69.8593C216.691 65.9954 216.536 62.1315 216.536 58.2676C216.536 54.5582 217.465 51.158 220.098 48.376C221.647 46.6759 222.732 44.6667 223.971 42.6574C227.533 36.9389 231.87 34.1569 238.066 36.1661C244.416 38.1753 247.514 36.1661 251.541 31.3749C257.582 24.2653 266.101 23.4925 274.62 26.12C276.478 23.9562 278.337 22.1015 280.041 20.2468C278.647 24.729 277.253 28.7474 282.054 32.4567C283.758 33.8478 284.378 36.9389 284.842 39.4118C285.617 43.4302 285.462 47.6032 286.236 51.6217C286.546 53.6309 287.785 55.9492 289.179 57.3403C290.728 58.8858 292.897 59.1949 293.051 55.6401C293.206 51.7762 293.826 47.9123 294.136 43.8939C294.291 41.5755 295.375 38.7935 294.291 36.9389C293.206 34.9296 292.277 33.6932 293.981 31.684C294.6 30.9112 294.291 29.3656 293.826 28.2837C291.967 22.5652 293.826 17.0012 294.291 10.2007C291.812 11.5917 289.799 12.8281 287.785 14.2191C285.152 16.0738 282.519 18.2376 280.041 20.2468C283.139 13.2918 288.25 9.27336 295.994 8.50058C297.388 8.34602 298.937 7.57324 300.331 7.41869C302.964 7.10957 305.907 6.64591 308.386 7.26413C313.187 8.34602 316.75 8.03691 319.383 3.40023C320.157 2.00923 322.016 1.23645 323.41 0C327.592 0 331.619 0 335.801 0C342.306 7.26413 348.967 14.3737 355.472 21.7924C356.556 23.0288 357.331 25.0381 357.486 26.7382C358.26 31.9931 359.189 37.4025 359.344 42.6574C359.654 51.6217 359.189 60.7405 359.189 69.7047C359.189 71.714 359.499 73.5686 359.809 75.4233C381.494 76.8143 402.713 74.3414 423.778 78.3599C428.425 79.2872 430.439 76.9689 430.439 72.1776C430.439 70.4775 429.819 68.6228 429.2 66.9227C427.341 61.3587 425.327 55.7947 423.469 50.0761C423.004 48.6851 422.849 47.1396 422.384 45.7486C427.651 52.549 431.833 59.504 436.325 66.4591C437.254 67.8501 439.267 69.8593 439.887 69.5502C443.604 68.0046 445.618 71.5594 448.251 71.8685C451.194 72.1776 454.447 70.1684 457.699 69.3956C458.474 69.2411 459.248 69.5502 460.023 69.5502C471.02 69.5502 471.02 69.5502 474.737 59.6586C477.061 53.6309 479.384 47.6032 481.707 41.5755C482.172 41.7301 482.482 41.8847 482.946 41.8847C481.552 53.4764 480.003 65.0681 478.454 77.278C488.832 77.7416 497.971 78.2053 507.264 78.5144C510.672 78.669 513.924 78.669 517.332 78.8235C527.555 79.2872 537.932 79.7509 548.155 80.3691C548.155 80.8328 548.155 81.451 548.155 81.9146C543.508 85.624 538.242 87.015 532.356 86.8604C528.794 86.7059 525.076 86.8604 521.514 86.7059C511.446 86.5513 501.533 87.7878 491.465 85.1603C488.367 84.3875 484.805 84.8512 481.552 85.0058C480.468 85.0058 479.074 85.7785 478.454 86.7059C476.286 89.4879 473.343 92.4245 472.878 95.5156C472.414 98.7612 474.737 102.316 475.821 105.716C477.061 109.271 478.609 112.826 480.003 116.535C480.623 118.235 480.933 120.09 481.397 121.945C479.229 120.09 477.835 117.926 476.596 115.762C472.724 109.426 469.006 102.934 464.979 96.5975C461.417 91.0334 460.642 91.0334 454.447 93.0427C452.588 93.6609 450.265 93.97 448.561 93.1972C444.998 91.8062 443.295 93.1972 442.055 96.2884C439.422 102.78 436.634 109.116 433.846 115.453C432.607 118.39 431.368 121.172 430.129 123.954C429.664 123.799 429.2 123.645 428.735 123.49C431.058 112.98 433.382 102.625 435.705 92.4245C433.382 90.8789 431.368 89.4879 429.045 88.2514C427.341 87.3241 425.327 86.3968 423.469 86.2422C411.697 85.9331 399.925 85.7785 388.154 85.7785C380.409 85.7785 372.82 86.3968 365.075 86.0877C359.189 85.9331 359.499 85.624 357.64 90.7243C350.206 111.28 342.461 131.682 335.336 152.238C332.548 160.12 330.69 168.466 328.986 176.812C327.902 181.912 329.605 183.149 334.872 182.994C343.081 182.685 351.29 182.221 359.654 182.067C363.991 181.912 368.328 182.067 372.045 182.067C374.833 176.967 374.214 172.948 372.51 168.621C370.032 162.284 367.863 155.792 365.695 149.301C370.651 154.71 374.214 160.738 378.086 166.611C380.1 169.548 380.719 174.957 386.76 172.175C387.224 172.021 388.309 172.639 388.773 173.103C391.097 175.73 393.265 175.421 396.208 173.875C398.222 172.794 401.165 172.948 403.643 172.948C414.02 173.257 414.02 173.412 417.893 163.675C420.216 157.802 422.384 151.928 424.708 146.055C425.327 146.21 425.792 146.364 426.412 146.364C424.708 158.883 423.159 171.403 421.3 184.231C423.159 184.231 425.172 184.385 427.186 184.231C439.422 183.612 451.813 182.685 464.05 182.376C471.175 182.221 478.454 183.149 485.579 183.612C496.112 184.076 506.644 184.54 517.177 185.158C527.4 185.622 537.777 186.24 548 186.704C548 187.476 548 188.095 548 188.558ZM303.119 243.117C302.81 244.044 301.725 245.435 301.88 246.826C302.5 253.935 303.429 261.045 304.513 268.155C304.978 270.782 305.598 273.1 301.88 274.182C300.331 274.646 299.092 276.501 297.233 278.355C296.149 274.955 295.839 271.864 294.445 269.7C291.038 264.909 290.728 259.809 291.038 254.245C291.193 250.69 290.573 247.135 290.109 243.735C289.954 241.725 289.024 239.562 289.334 237.707C289.954 233.07 288.095 230.288 282.674 229.206C287.63 225.033 288.25 220.397 287.785 215.451C287.475 212.824 286.701 210.042 285.927 207.414C285.617 206.023 284.687 204.477 284.533 203.087C284.223 197.986 282.364 194.122 276.943 193.349C277.717 191.495 277.562 189.949 277.098 188.249C276.478 186.549 276.014 184.849 275.704 183.149C274.62 178.203 275.549 177.121 280.815 175.576C280.97 175.576 280.815 174.803 280.815 174.648C277.872 174.339 274.929 173.721 272.141 173.721C270.438 173.721 268.734 174.03 267.185 174.648C264.397 175.73 261.919 177.121 259.285 178.358C258.976 178.512 258.666 178.667 258.976 178.512C260.215 180.058 261.454 181.603 262.693 183.149C258.976 187.322 254.484 185.931 252.47 183.767C248.443 179.439 245.5 181.449 242.093 183.303C242.867 186.704 243.487 189.795 244.261 193.504C242.093 192.886 241.163 192.422 239.924 192.113C241.783 208.187 243.642 223.952 245.5 239.871C245.965 243.116 246.43 246.362 247.204 249.762C247.824 253.008 249.218 256.099 249.373 259.345C249.527 262.9 249.682 265.836 252.935 268C255.258 269.546 255.413 272.018 255.103 274.8C254.639 278.51 254.639 282.528 255.568 286.083C256.343 289.483 257.737 293.347 262.693 293.038C264.087 292.884 265.636 293.656 267.185 293.502C280.815 292.265 294.136 294.12 307.611 294.893C313.032 295.202 318.608 293.038 324.029 291.802C324.339 291.802 324.494 290.565 324.649 289.792C324.184 289.792 323.72 289.792 323.255 289.792C322.016 289.792 320.622 289.638 319.383 289.638C319.692 288.092 319.383 285.774 320.312 285.001C323.875 281.91 324.184 278.664 322.171 274.8C321.706 273.873 320.932 272.637 321.241 272.018C324.029 264.909 318.453 260.581 315.665 255.636C314.271 253.317 313.807 252.39 315.046 249.917C316.75 246.671 315.665 245.28 312.103 244.971C309.315 244.044 306.682 243.58 303.119 243.117ZM325.269 103.398C325.423 97.5248 326.972 94.1246 330.38 91.6517C330.69 91.3426 330.845 90.7243 330.999 90.2607C334.407 81.6055 337.66 73.105 337.04 63.5225C336.73 58.113 336.885 52.8581 336.885 47.4487C336.73 41.421 337.195 35.7024 340.758 30.6021C341.842 29.0565 342.152 26.8927 342.616 24.8835C343.236 22.1015 342.152 20.7105 339.518 19.7832C334.562 18.083 330.38 20.4014 326.043 21.7924C322.326 23.0288 322.171 22.5652 315.82 22.4106C312.413 22.2561 310.089 21.0196 307.456 19.3195C305.443 17.9285 303.119 17.0012 299.712 15.1465C301.261 21.6378 307.921 20.0923 309.625 25.1926C306.682 24.4198 304.049 24.1107 302.035 22.8743C300.176 21.6378 298.937 19.3195 297.233 17.4648C295.22 22.8743 300.796 24.2653 302.19 27.6655C303.584 30.9112 308.695 26.12 309.005 31.5294C309.16 34.3114 311.174 36.9389 312.258 39.7209C312.413 40.1845 312.568 40.8028 312.722 41.1119C316.904 47.4487 319.538 47.9123 326.198 43.8939C326.508 43.7393 326.972 43.8939 328.211 44.0484C326.817 45.7486 325.888 47.1396 324.649 48.0669C321.087 51.0035 319.073 54.0946 319.383 59.1949C319.692 63.3679 320.157 68.0046 317.059 71.714C315.046 74.1869 313.962 76.8143 314.426 80.2145C314.736 82.0692 313.652 84.0784 313.032 87.1696C311.483 83.9239 310.554 81.9146 309.315 79.2872C305.288 82.3783 301.261 84.6967 298.008 87.7878C292.432 92.8881 287.166 98.4521 281.899 103.862C276.633 109.271 269.198 112.98 267.804 121.481C267.495 123.645 263.932 120.399 264.242 123.799C264.552 127.354 264.087 131.063 264.552 134.618C265.326 140.491 268.424 144.201 274.465 144.664C279.576 144.973 283.139 146.983 286.546 150.383C286.856 150.692 287.475 150.537 286.546 150.383C288.56 148.992 289.799 148.065 291.193 147.137C290.573 143.428 286.081 140.955 286.701 135.7C289.179 137.4 291.038 138.791 292.897 140.028C294.136 138.637 295.53 137.246 296.769 135.7C295.375 134.155 294.136 132.764 292.897 131.527C293.051 131.218 293.361 131.063 293.516 130.754C295.994 131.682 298.318 132.609 302.035 134C300.486 132.145 299.712 131.373 298.937 130.445C298.318 129.672 297.698 128.9 296.459 127.663C304.668 128.591 306.217 127.354 308.54 119.317C308.695 118.699 309.315 118.235 309.78 117.772C312.103 115.608 314.426 113.599 316.595 111.28C320.312 107.262 321.087 102.934 317.214 98.4521C316.44 97.6794 316.13 96.4429 315.665 95.361C315.975 95.2065 316.285 94.8973 316.595 94.7428C319.228 97.2157 321.706 99.6886 325.269 103.398ZM261.919 162.747C259.905 160.738 258.046 158.729 256.033 157.029C254.484 155.638 252.625 154.71 251.231 153.319C249.837 151.774 249.992 149.765 252.006 148.837C252.625 148.528 254.484 149.765 255.258 150.692C257.117 152.856 258.356 155.329 260.215 157.338C262.228 159.502 264.707 159.811 267.495 156.72C260.989 153.629 265.636 147.91 263.932 143.273C263.313 144.664 262.538 146.055 261.299 148.683C261.299 142.501 261.299 137.864 261.299 132.609C258.821 133.691 257.272 134.309 255.723 135.082C255.258 134.773 254.949 134.309 254.484 134C259.131 131.373 260.215 127.2 260.834 121.945C257.272 125.809 253.864 128.745 251.541 132.3C249.063 135.855 248.133 140.491 243.177 143.737C243.642 139.873 243.951 137.091 244.416 134.464C245.036 131.682 245.965 128.9 246.894 125.809C245.191 126.736 244.261 127.2 243.332 127.663C245.5 124.727 243.797 121.481 244.416 118.699C245.036 116.535 241.938 114.062 243.642 111.126C243.797 110.817 242.557 109.735 241.783 108.962C241.163 108.344 239.614 107.88 239.769 107.571C240.544 102.471 236.207 100.925 233.264 100.77C228.308 100.461 227.998 97.2157 227.068 93.97C226.759 92.4245 226.759 90.8789 226.449 89.3333C225.674 86.0877 222.422 83.9239 219.479 84.8512C215.916 85.9331 216.691 88.5606 217.465 91.0335C219.014 96.4429 220.563 101.852 221.957 107.262C222.267 108.653 222.731 110.353 222.267 111.744C219.324 120.708 221.183 128.745 226.914 136.164C227.533 136.937 227.688 138.018 228.308 138.946C232.49 145.746 232.49 155.174 241.008 159.193C242.403 164.602 248.443 163.057 251.541 165.993C252.315 166.766 254.794 165.839 256.497 165.22C258.356 165.22 259.595 164.138 261.919 162.747ZM238.84 40.9573C233.419 37.248 229.856 37.7117 226.294 42.6574C224.126 45.7486 221.802 48.8397 219.789 52.0854C219.169 53.1672 218.549 55.331 219.014 56.1038C222.422 60.7405 220.873 66.6136 224.28 72.0231C222.112 71.0957 221.028 70.6321 219.324 70.0138C219.943 71.714 220.253 72.9504 220.873 73.8777C224.435 79.2872 231.56 78.9781 235.897 83.1511C236.207 83.4602 239.614 81.1419 239.614 80.6782C237.756 75.1142 239.305 68.4683 235.123 63.5225C233.264 61.3587 232.18 59.3495 234.038 56.5675C234.193 56.2584 232.335 54.7128 232.025 54.5582C234.658 49.9216 236.826 45.4394 238.84 40.9573ZM263.777 89.797C262.228 88.2514 260.525 87.1695 260.215 85.9331C259.75 83.3056 259.595 80.3691 260.215 77.8962C262.228 69.8593 260.68 62.286 258.356 54.7128C256.497 48.376 257.427 43.4302 263.003 39.4118C264.862 38.0208 267.34 36.4752 266.875 33.3841C265.326 32.7659 263.932 32.3022 261.919 31.5294C264.242 30.7566 265.791 30.1384 267.34 29.6747C265.636 28.2837 264.087 27.8201 262.538 27.9746C255.723 28.902 247.669 36.4752 248.133 41.8847C248.598 46.985 249.373 52.0854 250.302 57.0311C252.006 66.3045 253.864 75.5779 255.568 84.8512C256.343 89.0242 256.807 89.4879 263.777 89.797Z" fill="#4E87D0" fill-opacity="0.1"/>
</g>
<defs>
<clipPath id="clip0_231_21701">
<rect width="548" height="402" fill="white"/>
</clipPath>
</defs>
</svg>
