<svg width="1200" height="65" viewBox="0 0 1200 65" fill="none" xmlns="http://www.w3.org/2000/svg">
<path d="M1116.38 28.3486C1113.96 31.3416 1111.54 34.1921 1107.7 38.8955C1139.56 40.4633 1169.28 42.031 1200 43.5988C1198.86 45.1666 1198.44 46.3068 1197.87 46.4493C1188.48 47.0194 1179.09 47.447 1169.71 47.8745C1151.65 48.7297 1133.73 42.1735 1115.53 46.1642C1112.97 46.7343 1110.26 48.8722 1108.7 51.0101C1106.57 54.1457 1105.43 57.8513 1103.44 61.1294C1102.73 49.2998 1102.73 49.2998 1096.61 50.5825C1096.89 52.1503 1097.18 53.7181 1097.46 55.1433C1097.75 56.4261 1098.17 57.7088 1098.46 58.9915C1097.75 59.2766 1096.9 59.7041 1096.18 59.9892C1094.62 56.5686 1092.63 53.148 1091.78 49.5849C1090.78 45.0241 1088.22 44.3114 1084.1 44.4539C1064.33 44.8815 1044.56 45.1666 1024.79 45.3091C1007.44 45.4516 989.95 45.1666 972.6 45.5942C970.751 45.5942 968.049 48.8722 967.196 51.2952C965.774 55.4284 965.347 59.9892 964.636 64.4075C963.783 64.2649 962.93 64.1224 962.219 63.9799C962.361 62.2696 962.645 60.5593 962.503 58.849C962.219 55.856 961.507 52.7204 961.081 49.7274C958.094 50.2975 955.108 50.8676 951.268 51.5802C948.993 42.6011 941.313 45.0241 933.918 45.1666C922.399 45.4516 910.879 44.739 899.218 44.739C886.276 44.739 873.335 45.0241 860.536 44.8815C856.127 44.8815 851.718 43.4563 847.31 42.8862C838.35 41.6034 829.533 41.1759 821.569 47.0194C819.72 48.3021 816.449 49.0148 814.316 48.4447C807.774 46.8769 806.352 50.44 805.783 55.5709C805.499 58.4214 804.788 61.2719 804.361 64.1224C803.508 63.9799 802.655 63.9799 801.801 63.8374C802.086 60.8444 802.086 57.8513 802.797 55.0008C803.935 49.7274 802.37 46.4493 796.966 45.7367C789.998 44.739 783.029 43.7413 775.918 43.4563C754.729 42.6011 733.539 42.1736 712.349 41.3184C700.545 40.8908 688.884 39.6081 677.08 39.4656C674.662 39.4656 671.391 42.031 669.969 44.4539C666.698 50.0124 664.138 56.141 661.436 61.9846C660.725 61.6995 660.014 61.4144 659.303 61.1294C660.156 58.849 660.867 56.4261 662.005 54.1457C663.996 50.0124 666.556 46.1642 660.867 42.6011C655.321 39.1805 652.05 41.3184 649.775 46.4493C649.633 46.7343 649.064 46.8769 647.784 47.447C648.779 39.8932 643.944 40.4632 639.109 40.4632C624.745 40.3207 610.382 39.7506 596.018 39.6081C574.259 39.4656 552.643 39.6081 530.884 39.4656C526.191 39.4656 521.498 38.1829 516.805 38.1829C513.676 38.1829 510.547 40.0357 507.419 40.4632C504.006 41.0333 500.166 42.031 497.322 41.0334C490.638 38.6104 488.22 41.3184 486.94 47.3045C486.371 50.0124 485.091 52.5779 484.238 55.2859C483.527 55.0008 482.816 54.8583 482.105 54.5732C482.531 52.4354 482.958 50.2975 483.527 48.1596C485.376 40.6058 484.38 38.8955 476.416 37.8978C473.003 37.4702 469.305 38.0403 465.75 38.0403C459.919 38.1828 454.089 38.3254 448.116 38.1829C433.325 37.8978 418.677 37.4702 403.887 36.9001C399.621 36.7576 395.354 36.33 391.088 36.33C381.275 36.1875 371.32 36.33 361.365 36.1875C357.099 36.1875 352.832 36.1875 348.708 35.7599C340.46 35.0473 339.606 36.1875 342.735 44.1689C343.162 45.4516 343.446 46.7343 344.015 49.0148C342.309 48.3021 341.029 48.0171 340.886 47.5895C339.322 38.8955 331.216 38.7529 325.243 36.4725C323.679 35.9024 320.265 38.3254 318.843 40.1782C316.141 43.5988 314.15 47.5895 311.875 51.2952C311.164 51.0101 310.595 50.5825 309.884 50.2975C311.875 45.8792 313.866 41.4609 316.283 36.1875C313.724 35.6174 312.017 35.0473 310.168 35.0473C294.809 35.4749 279.45 35.9024 264.091 36.33C262.384 36.33 260.678 36.4725 259.113 36.1875C233.942 31.4842 208.628 33.337 183.456 33.9071C181.465 33.9071 178.763 34.1921 177.625 35.4749C173.785 39.4656 169.661 39.1805 165.252 37.3277C160.844 35.6174 158.568 37.0426 157.715 41.6034C157.004 45.3091 156.008 48.8722 155.013 52.5779C154.871 53.0055 153.875 53.2905 151.742 54.5732C152.453 49.7274 152.738 46.1643 153.591 42.7437C154.871 37.4702 153.164 34.1921 148.044 33.1945C143.636 32.3393 139.085 31.4842 134.819 31.7692C116.9 32.9094 99.123 35.4749 81.204 35.6174C61.8629 35.7599 42.5219 33.622 23.1808 32.3393C22.0431 32.1968 20.7632 32.0543 19.6254 31.9117C8.81719 31.1991 7.25284 33.1945 9.81269 43.8839C10.2393 45.5942 10.0971 47.447 9.67048 49.2998C-3.55541 35.0473 0.853219 17.6592 0.426578 1.26882C1.42207 1.1263 2.27536 0.841256 3.27085 0.69873C3.83971 3.69176 4.69299 6.8273 4.83521 9.82033C5.54627 26.0682 6.68398 27.636 23.0386 27.0659C36.2645 26.4958 49.3481 27.7785 62.574 28.7762C80.493 30.2014 98.8385 27.636 116.9 26.7808C123.442 26.4958 130.126 26.4958 136.667 26.3533C137.094 26.3533 137.663 26.4958 138.09 26.4958C152.88 28.2061 156.435 24.2154 153.733 9.96287C153.449 8.11004 153.022 6.39973 152.738 4.54691C153.449 4.26186 154.302 3.9768 155.013 3.69175C156.151 7.25487 157.857 10.6755 158.426 14.3811C159.279 20.6522 160.133 25.213 168.381 21.935C172.221 20.3672 177.056 20.9373 179.332 20.7948C182.745 23.2177 184.736 25.6406 187.011 25.9257C193.98 26.7808 201.09 27.0659 208.201 27.3509C219.72 27.7785 231.24 28.0636 242.759 28.4911C254.847 28.9187 266.935 29.3463 278.881 29.6313C287.841 29.9164 296.8 29.9164 305.76 30.0589C307.466 30.0589 309.031 30.344 310.737 30.2014C319.128 29.7739 320.834 26.9233 317.421 19.3695C315.999 16.0914 314.719 12.6708 313.439 9.39275C314.435 8.96518 315.43 8.39508 316.426 7.9675C317.563 10.2479 319.27 12.2433 319.839 14.6662C322.256 25.4981 325.243 27.4934 334.913 22.9326C337.758 21.5074 339.18 17.3742 342.309 13.0984C342.735 16.519 343.02 18.6569 343.02 20.6523C343.02 22.9327 342.593 25.3556 342.166 28.6336C354.112 29.0612 365.632 29.4888 377.151 29.9164C397.63 30.7715 418.108 32.1968 438.729 32.6244C453.093 32.9094 467.457 32.1968 481.82 31.7692C487.224 31.6267 487.935 28.7762 485.802 24.2154C484.096 20.5097 482.816 16.519 481.394 12.6708C482.389 12.2433 483.385 11.8157 484.38 11.3881C486.087 14.9512 487.651 18.6569 489.784 22.0775C491.206 24.5004 493.624 28.6337 494.904 28.3486C499.597 27.3509 505.854 28.2061 507.419 21.2223C507.845 18.9419 508.556 16.6615 509.125 14.5237C509.836 14.3811 510.405 14.3811 511.116 14.2386C511.401 15.9489 512.112 17.8018 511.827 19.227C511.259 21.5074 508.983 23.6453 509.268 25.6406C509.41 27.636 511.543 31.1991 513.107 31.1991C525.053 32.1968 537.141 32.6244 549.23 33.0519C552.785 33.1945 556.34 32.9094 559.896 32.9094C572.41 32.9094 584.783 32.9094 597.298 33.0519C601.706 33.0519 606.257 33.7646 610.666 34.0496C613.937 34.3347 617.208 34.9048 620.479 34.9048C629.58 34.9048 638.824 34.6197 647.926 34.3347C649.206 34.3347 650.628 33.9071 653.472 33.337C650.912 29.0612 648.779 25.4981 646.362 21.5074C648.495 22.0775 675.373 16.6615 677.791 16.3765C676.653 20.0822 675.373 23.6453 674.236 27.3509C673.667 29.0612 672.671 31.7692 673.382 32.4818C674.662 33.622 676.938 33.9071 678.929 34.0496C680.351 34.1921 681.773 33.622 683.195 33.622C702.109 34.6197 720.882 35.9024 739.796 36.4725C757.431 37.0426 775.065 37.4702 792.557 36.9001C801.659 36.6151 802.086 34.7622 797.677 26.2107C796.966 24.928 796.539 23.3602 795.971 22.0775C796.539 21.7925 797.108 21.5074 797.677 21.0798C799.526 24.3579 801.09 27.921 803.508 30.629C805.214 32.4818 808.201 34.0496 810.761 34.3347C816.734 34.9048 822.849 34.0496 828.822 34.6197C841.479 35.7599 854.136 38.4679 866.793 38.6104C890.827 38.7529 914.719 37.4702 939.607 36.9001C938.184 35.0473 937.189 33.622 936.051 32.0543C937.047 31.7692 937.758 31.1991 938.184 31.4842C940.602 32.6244 942.877 33.7646 945.153 35.0473C953.828 40.3207 961.081 38.3254 966.201 29.2038C967.623 26.6383 969.329 24.2154 970.894 21.6499C971.462 21.935 972.031 22.3625 972.742 22.6476C971.32 25.3556 969.756 27.921 968.476 30.629C965.632 36.6151 967.196 38.8955 973.453 39.038C989.097 39.323 1004.6 40.3207 1020.24 40.1782C1034.89 40.0357 1049.4 38.6104 1064.04 38.1829C1071.72 38.0403 1079.54 38.7529 1089.22 39.1805C1085.66 34.7622 1082.96 31.4842 1080.26 28.0636C1080.68 27.636 1080.97 27.2084 1081.39 26.9234C1083.38 28.6337 1085.38 30.344 1087.22 32.1968C1094.19 39.323 1102.01 39.4656 1109.27 32.4818C1111.54 30.344 1113.96 28.3486 1116.24 26.3533C1115.81 27.3509 1116.09 27.921 1116.38 28.3486Z" fill="#4E87D0" fill-opacity="0.2"/>
</svg>
