<svg width="1200" height="77" viewBox="0 0 1200 77" fill="none" xmlns="http://www.w3.org/2000/svg">
<path d="M452.24 67.7359C453.378 63.4601 454.373 59.1843 455.511 54.9086C456.649 50.4903 455.369 47.2122 450.391 46.7847C443.138 46.072 435.885 45.2169 428.633 45.3594C413.7 45.6445 398.91 46.7846 383.977 47.3548C367.338 47.9249 350.557 48.2099 333.918 48.495C330.789 48.495 327.661 48.9225 324.674 48.3524C315.004 46.4996 306.329 47.4973 297.654 53.1983C293.529 55.9063 287.13 55.0511 280.161 56.1913C278.597 60.4671 276.464 66.8807 274.188 73.2943C273.335 73.0093 272.34 72.7242 271.486 72.4392C272.624 68.306 273.335 64.0302 274.757 60.0395C276.606 54.9086 274.615 51.9156 269.78 51.3455C260.678 50.4903 251.576 50.3478 242.475 50.0627C239.915 49.9202 237.355 50.6328 234.653 50.7754C216.876 51.488 199.242 52.4857 181.465 52.6282C162.835 52.6282 144.347 51.3455 125.717 51.488C119.317 51.488 112.918 53.9109 106.803 55.9063C101.256 57.6166 96.2789 62.89 89.5948 58.4717C88.8837 58.0441 85.6128 60.182 84.6173 61.7498C82.9108 64.6003 82.3419 68.0209 81.062 71.0139C80.0665 73.1518 78.7866 75.1471 77.5066 77.1425C76.7956 76.8575 75.9423 76.4299 75.2312 76.1449C76.6534 71.8691 78.0755 67.5933 79.6398 63.4601C81.4886 58.7568 79.7821 56.3338 75.089 55.1936C65.9873 52.9132 57.1701 52.9132 47.784 54.0535C33.4204 55.9063 18.6301 55.0511 3.9821 55.1936C2.84439 55.1936 1.70668 53.6259 0.426758 52.7707C1.70668 52.0581 2.84439 50.7754 4.12432 50.6328C23.181 49.3501 42.3798 48.3524 61.4365 47.2122C63.2853 47.0697 65.2763 46.9272 67.125 46.6421C74.6624 45.2169 75.3734 43.6491 72.6714 36.5229C71.5337 33.6723 70.8226 30.6793 69.9693 27.6863C70.8226 27.2587 71.8181 26.9737 72.6714 26.5461C74.2357 29.9667 76.0845 33.2448 77.08 36.8079C78.7866 42.3664 82.4841 43.5066 87.4616 42.6514C93.8612 41.5112 100.261 40.2285 106.66 38.9458C112.207 37.8056 113.913 39.2308 113.06 45.2169C119.46 45.2169 125.717 45.3594 132.117 45.2169C137.805 45.0743 143.494 44.7893 149.04 44.6468C176.203 44.0767 203.366 43.5066 230.386 43.079C236.075 42.9365 241.764 43.3641 247.452 42.9365C254.705 42.3664 261.958 41.7963 269.069 40.2285C270.775 39.8009 272.197 36.2378 272.908 33.8149C273.762 30.9644 273.762 27.6863 274.046 26.1185C278.455 28.3989 282.01 30.3943 285.85 32.1046C288.836 33.5298 292.676 33.8149 294.952 35.9527C302.347 42.9365 311.306 42.0813 320.123 41.9388C327.092 41.7963 334.203 41.9388 341.171 41.9388C345.437 41.9388 349.704 42.0813 353.828 41.9388C357.099 41.7963 360.512 40.5135 363.641 41.0837C377.436 43.7916 390.804 41.0837 404.456 38.6607C412.136 37.2355 420.384 38.9458 428.348 38.9458C434.748 38.9458 441.005 38.9458 447.405 38.3757C451.813 37.9481 452.809 35.3827 450.818 31.2494C449.396 28.2564 448.258 25.2634 447.12 22.2703C447.974 21.9853 448.685 21.5577 449.538 21.2727C450.96 24.2657 452.667 27.2587 453.947 30.3943C456.222 35.6677 459.635 37.6631 465.181 35.5252C471.439 33.2448 477.127 33.9574 483.669 36.0953C490.638 38.3757 498.602 38.0906 506.139 37.8056C539.701 37.0929 573.406 36.3803 606.969 34.9551C618.488 34.385 630.007 32.1046 641.384 29.8242C644.086 29.2541 646.077 25.2633 648.779 22.4128C649.633 23.1255 651.055 24.4082 653.615 26.8311C654.468 21.7002 655.321 17.567 656.032 13.2912C656.601 13.2912 657.17 13.2912 657.739 13.1487C658.166 16.1417 658.734 19.2773 658.877 22.2703C659.445 29.1115 662.859 32.6747 669.685 33.1022C669.969 33.1022 670.112 33.1022 670.396 33.1022C690.164 32.5321 709.931 31.962 729.699 31.3919C743.636 31.1069 757.573 31.3919 771.368 30.3943C782.461 29.6816 793.411 27.6863 804.361 26.261C808.343 25.6909 812.325 24.9783 816.307 24.4082C823.276 23.268 823.987 21.5577 820.005 15.8567C819.294 14.859 818.725 13.5763 817.729 11.5809C825.125 15.9992 831.951 19.4198 838.066 23.5531C844.608 28.1139 851.719 28.1139 859.114 27.6863C880.019 26.6886 901.067 25.8335 921.972 25.1208C938.042 24.5507 954.113 24.5507 970.183 24.1232C972.6 24.1232 975.018 22.983 979.142 21.9853C974.307 15.8567 970.325 11.0108 966.343 6.02245C975.302 7.4477 976.44 18.7072 986.679 19.2773C997.345 19.8474 1000.62 10.8683 1008.15 6.87761C1005.31 11.1534 1002.32 15.4291 998.341 21.4152C1010.57 21.4152 1020.81 21.7002 1031.05 21.2727C1046.41 20.7026 1061.63 19.8474 1076.84 18.7072C1094.9 17.282 1113.11 15.5716 1131.17 13.8613C1136 13.4338 1138.42 10.8683 1137.71 5.7374C1137.43 4.16963 1138.28 2.45933 1138.56 0.749023C1139.27 0.749023 1139.84 0.749023 1140.55 0.749023C1140.84 2.60185 1141.41 4.45469 1141.55 6.30752C1142.26 14.2889 1146.1 17.4245 1154.35 16.9969C1168.43 16.1418 1182.51 15.1441 1196.59 14.2889C1197.3 14.2889 1197.87 14.574 1198.72 14.7165C1200.57 19.5624 1199.43 21.8427 1193.89 21.7002C1180.52 21.4152 1167.01 21.2726 1153.64 21.7002C1151.22 21.8427 1148.38 24.6933 1146.95 27.1162C1143.4 32.9597 1140.55 39.3734 1137.43 45.5019C1136.57 45.0744 1135.72 44.6468 1134.87 44.2192C1136.15 41.6537 1137.14 39.0883 1138.56 36.5229C1141.12 31.962 1140.55 28.684 1134.87 27.6863C1129.6 26.8311 1124.2 25.8335 1118.94 25.6909C1097.89 25.1208 1076.84 24.4082 1055.8 24.8358C1039.58 25.2634 1023.23 27.2587 1007.02 28.969C1005.59 29.1115 1004.17 31.962 1003.32 33.9574C1002.75 35.2401 1003.18 36.9504 1001.9 39.0883C1000.47 36.3803 999.194 33.6724 997.914 31.2494C993.648 31.3919 989.666 31.677 984.262 31.8195C986.253 35.5252 988.244 39.2308 990.235 42.9365C989.666 43.3641 989.097 43.9342 988.67 44.3617C986.395 41.6538 983.124 39.3734 981.986 36.2378C979.711 29.8242 975.445 27.9713 969.329 28.5414C965.49 28.8265 961.792 29.2541 958.094 29.6816C955.108 30.1092 951.979 30.9644 948.993 30.9644C930.647 31.1069 912.302 30.8218 893.956 31.1069C881.441 31.3919 868.926 32.1046 856.412 32.9597C854.705 33.1022 853.283 34.8125 850.723 36.3803C846.172 32.9597 839.773 30.9644 833.8 38.0906C832.946 39.0883 829.96 39.3733 828.396 38.8032C819.294 35.3826 811.33 37.093 803.793 44.7893C803.793 41.7963 803.793 39.8009 803.793 36.3803C791.42 36.3803 779.616 36.3803 767.67 36.3803C763.83 36.3803 760.133 36.6654 756.293 36.6654C753.733 36.6654 751.031 36.0953 748.471 36.0953C732.259 36.8079 716.047 37.8056 699.834 38.2331C693.008 38.5182 686.182 38.2332 679.355 37.6631C669.827 36.8079 668.547 38.2331 671.96 46.7847C672.387 47.9249 672.245 49.3501 671.107 51.2029C668.832 47.9249 666.556 44.5043 663.854 40.5136C658.45 45.6445 653.188 44.3617 646.788 43.2215C641.384 42.2239 634.985 45.5019 629.865 46.6421C626.879 45.2169 623.75 43.6491 620.479 42.3664C610.24 38.6607 600.142 40.371 589.761 42.0813C581.655 43.5066 573.264 42.2239 565.016 42.2239C558.474 42.2239 551.79 41.6538 545.248 42.6514C533.871 44.3617 522.778 45.5019 511.401 43.079C507.277 42.2238 502.299 41.2262 499.313 46.3571C498.886 47.2122 496.184 47.6398 495.189 47.0697C490.211 44.6468 486.229 46.3571 481.82 48.78C477.127 51.3455 472.15 53.3408 466.461 50.0627C461.057 46.9272 460.062 51.773 458.924 55.3362C457.502 59.6119 456.364 64.0302 455.227 68.306C454.089 68.306 453.093 68.0209 452.24 67.7359Z" fill="#4E87D0" fill-opacity="0.2"/>
</svg>
