<svg width="1200" height="72" viewBox="0 0 1200 72" fill="none" xmlns="http://www.w3.org/2000/svg">
<path d="M856.269 25.227C858.118 28.3625 860.251 31.4981 861.958 34.7761C863.949 38.3393 866.082 39.0519 870.49 38.6243C878.312 37.9117 886.276 38.9094 894.24 39.4795C896.942 39.622 899.644 41.1898 902.489 41.3323C920.834 42.615 939.322 43.7552 957.668 44.6104C960.654 44.7529 963.641 43.4702 966.769 43.3276C976.44 42.7575 985.968 42.4725 995.639 42.1874C997.63 42.1874 999.621 42.4725 1002.75 42.615C1001.33 40.3346 1000.47 39.1944 999.478 37.6266C1000.47 37.3416 1001.33 36.914 1001.75 37.0565C1005.17 38.4818 1008.72 40.0496 1011.99 41.7599C1018.96 45.323 1026.36 43.1851 1030.34 36.4864C1032.61 32.7808 1034.89 29.0751 1037.17 25.3695C1037.88 25.7971 1038.44 26.0821 1039.16 26.5097C1037.45 29.6452 1035.46 32.6383 1033.89 35.9163C1030.77 42.0449 1032.61 44.7529 1039.3 44.8954C1056.36 45.323 1073.29 46.3207 1090.35 46.3207C1105.43 46.1782 1120.5 44.7529 1135.58 44.0403C1139.56 43.8977 1143.54 44.1828 1147.52 44.4678C1151.65 44.7529 1155.77 45.1805 1159.9 45.6081C1160.18 45.038 1160.61 44.3253 1160.89 43.7552C1157.48 41.1898 1154.06 38.6243 1150.65 36.0589C1151.36 35.2037 1152.22 34.206 1152.93 33.3509C1155.2 35.0612 1157.76 36.629 1159.9 38.4818C1168.85 46.6057 1175.4 46.4632 1184.21 37.9117C1186.63 35.6313 1189.19 33.4934 1191.75 31.213C1192.32 31.7831 1192.75 32.2107 1193.32 32.7808C1191.32 34.7761 1189.05 36.629 1187.34 38.9094C1186.35 40.1921 1186.06 42.1874 1185.49 43.8977C1187.2 44.4678 1188.76 45.323 1190.47 45.4655C1193.03 45.6081 1195.59 45.323 1198.58 45.1805C1199.72 48.7436 1201.14 52.8768 1195.59 52.0217C1187.34 50.8815 1184.64 55.4423 1182.65 61.8559C1181.8 64.5639 1180.23 67.1293 1178.95 69.8373C1178.24 69.5523 1177.67 69.2672 1176.96 69.1247C1177.67 66.8443 1178.67 64.7064 1178.81 62.426C1178.95 60.5732 1178.67 58.2928 1177.53 56.8675C1176.96 56.0124 1174.54 56.44 1172.84 56.44C1172.84 58.2928 1172.84 60.2881 1172.98 62.141C1173.12 63.4237 1173.41 64.7064 1173.55 65.9892C1172.98 66.2742 1172.41 66.5592 1171.7 66.7018C1169.71 62.9961 1168 59.0054 1165.73 55.4423C1164.45 53.4469 1162.03 51.3091 1159.9 51.1665C1153.21 50.4539 1146.24 50.3114 1139.56 50.4539C1133.02 50.4539 1126.33 51.3091 1119.79 51.3091C1103.29 51.1665 1086.94 50.5964 1070.44 50.5964C1059.63 50.5964 1048.68 51.1665 1037.88 52.0217C1036.45 52.1642 1034.61 55.5848 1034.04 57.7227C1032.9 62.141 1032.47 66.8443 1031.62 71.4051C1030.77 71.4051 1030.05 71.2626 1029.2 71.2626C1029.34 67.9845 1029.49 64.8489 1029.63 61.5709C1029.91 55.8699 1027.49 53.732 1022.52 56.1549C1018.68 58.1503 1017.4 56.5825 1015.12 54.017C1013.27 51.8792 1009.72 50.3114 1006.87 50.1689C992.226 49.7413 977.577 49.7413 962.929 49.7413C949.704 49.7413 936.62 49.8838 923.394 49.7413C918.985 49.5988 914.435 49.0287 910.168 47.8885C900.071 45.323 890.685 45.6081 881.725 51.7366C879.592 53.1619 876.179 53.732 873.619 53.0194C867.504 51.3091 866.082 54.1596 865.655 59.433C865.371 62.8536 864.375 66.2742 863.807 69.6948C863.095 69.6948 862.384 69.6948 861.673 69.5523C861.673 66.9868 861.531 64.4214 861.673 61.8559C862.669 51.7366 862.527 51.024 852.429 48.8861C846.456 47.6034 840.341 47.8885 834.226 47.4609C832.519 47.3184 830.813 47.8885 829.248 47.3184C815.88 42.9001 802.512 45.6081 789.144 46.7483C785.447 47.0333 781.607 46.6057 777.909 46.4632C769.519 46.0356 760.986 45.8931 752.595 45.1805C746.48 44.6104 740.507 43.4702 734.392 42.1874C729.13 41.0472 726.001 42.4725 724.153 47.8885C721.877 54.3021 718.464 60.4307 715.477 66.7018C714.624 66.2742 713.771 65.8466 712.918 65.5616C714.34 62.5685 715.478 59.433 717.042 56.5825C719.033 52.8768 721.451 49.1712 716.189 46.3207C711.638 43.8978 706.945 41.3323 703.958 48.4586C703.674 49.0287 702.963 49.3137 701.398 50.4539C702.536 43.3277 698.127 43.6127 693.861 43.6127C667.125 43.3276 640.531 43.3276 613.795 42.615C597.582 42.1874 581.37 40.6197 565.158 40.0496C561.887 39.907 558.616 41.9024 555.345 42.9001C555.487 43.6127 555.629 44.4678 555.771 45.1805C552.643 44.3253 549.372 44.0403 546.385 42.7575C540.27 40.1921 537.568 42.9001 536.146 48.4586C535.435 51.3091 534.439 54.017 533.586 56.725C532.875 56.5825 532.164 56.44 531.311 56.1549C531.88 53.1619 532.448 50.1689 533.159 47.3184C534.297 43.0426 533.302 40.3346 528.324 40.0496C525.907 39.907 523.631 39.3369 521.214 39.4795C508.556 39.622 495.757 40.0496 483.1 40.1921C479.829 40.1921 476.558 39.4795 473.287 39.0519C471.865 38.9094 470.585 38.0542 469.163 37.9117C449.396 37.4841 429.628 37.1991 409.86 36.914C404.883 36.7715 400.047 36.7715 395.07 36.7715C392.368 36.7715 389.666 37.1991 386.964 37.4841C387.39 39.907 387.533 42.4725 388.101 44.8954C388.528 46.8908 389.381 48.7436 390.661 52.4493C388.101 50.739 386.537 50.3114 386.395 49.4562C384.973 42.9001 380.564 40.4771 374.591 38.0542C368.476 35.6313 365.916 37.0565 363.356 42.0449C361.507 45.4655 359.232 48.4586 357.099 51.7366C356.388 51.3091 355.819 51.024 355.108 50.5964C357.099 46.1782 359.232 41.6173 361.365 36.914C359.801 36.2014 358.948 35.4888 358.094 35.4888C343.446 35.6313 328.798 35.7738 314.15 36.0589C311.022 36.0589 308.035 36.629 304.906 36.3439C286.845 35.0612 268.642 33.3509 250.581 32.3532C242.19 31.9256 232.662 30.7854 225.409 33.921C218.014 37.1991 212.183 38.7668 204.646 36.0589C204.077 35.7738 201.375 39.622 200.664 41.7599C199.384 45.4655 198.815 49.4562 198.104 53.3044C197.393 53.3044 196.539 53.1619 195.828 53.1619C195.828 50.8815 195.544 48.6011 195.828 46.4632C197.677 34.7761 194.406 30.3579 182.887 30.928C165.537 31.7831 148.045 33.4934 130.694 34.7761C128.135 34.9187 125.433 35.4888 122.873 35.3462C104.527 34.0635 86.0393 32.6383 67.6938 31.213C65.9872 31.0705 64.4228 30.928 62.7163 30.928C52.1925 30.928 51.3392 31.9256 53.0457 42.1874C53.3302 43.8978 53.0457 45.7506 53.0457 49.0287C46.9305 44.6104 50.2015 34.0635 40.6731 35.9163C35.1268 36.914 28.7272 28.3625 25.1718 36.4864C16.0702 34.3486 8.10618 32.3532 0 30.5004C0.142214 29.7878 0.142214 28.9326 0.284428 28.22C6.25741 28.505 12.0882 28.7901 18.0611 29.0751C13.6525 21.6638 5.68855 26.9373 0.142214 23.5167C0.995496 17.2455 12.9415 24.7994 8.53283 12.8273C17.6345 18.9558 24.8874 21.3788 34.8424 20.096C49.917 17.6731 41.5264 5.70101 48.0683 0C48.4949 4.41828 49.0638 8.69403 49.206 13.1123C49.4904 23.0891 50.6281 24.5143 60.7253 25.0844C65.9872 25.3695 71.1069 24.6569 76.3688 24.9419C85.0438 25.512 93.7189 26.5097 102.394 27.0798C107.229 27.5074 112.207 27.5074 117.042 27.5074C119.175 27.5074 121.308 26.7947 123.442 26.7947C143.494 26.3672 163.546 25.9396 183.598 25.512C184.025 25.512 184.593 25.512 185.02 25.512C197.962 25.7971 200.095 23.2316 197.819 10.8319C197.393 8.40898 196.966 5.98606 196.682 3.70565C197.535 3.4206 198.53 3.27808 199.384 2.99303C200.379 6.55616 201.659 9.97676 202.086 13.5399C202.797 19.9535 204.077 24.2293 212.183 21.2362C216.165 19.811 220.716 19.9535 225.409 19.2409C225.409 20.5236 225.409 22.519 225.409 25.6545C235.933 25.9396 246.03 26.2246 255.985 26.5097C265.371 26.7947 274.757 27.0798 284.143 27.2223C300.213 27.6499 316.283 28.0775 332.211 28.505C337.9 28.6476 343.446 29.2177 349.135 29.6452C352.264 29.7878 355.25 30.2153 358.379 30.0728C363.783 29.9303 365.489 27.0798 363.783 22.0914C362.361 18.1007 361.223 14.2525 359.801 10.2618C360.512 9.97676 361.223 9.54919 362.076 9.26414C363.214 11.6871 364.494 14.11 365.489 16.5329C367.054 20.8087 367.765 25.3695 374.164 25.0844C379.853 24.7994 384.546 23.9442 385.257 16.9605C385.399 15.9628 386.253 15.2502 388.386 14.6801C388.101 17.2455 388.244 19.9535 387.533 22.519C386.395 27.2223 387.817 29.2177 392.652 29.2177C407.3 29.2177 421.948 28.9326 436.596 29.6452C452.382 30.3579 468.168 32.3532 483.953 32.9233C499.028 33.6359 514.103 33.7785 529.177 33.3509C536.43 33.2084 536.999 31.3555 534.439 24.0868C533.159 20.6661 532.022 17.3881 530.742 13.9675C531.453 13.6824 532.306 13.2548 533.017 12.9698C534.724 16.6754 535.862 20.5236 538.137 23.9442C539.559 26.2246 542.403 29.2177 544.394 29.0751C548.376 28.7901 553.923 29.6452 555.487 23.6592C556.198 20.8087 557.194 18.1007 558.189 15.3927C559.042 15.6778 559.753 15.8203 560.607 16.1053C559.896 18.9558 559.327 21.9489 558.331 24.7994C556.625 30.0728 557.478 32.7808 563.878 33.0658C585.636 34.0635 607.253 35.6313 628.869 36.7715C632.425 36.914 635.98 36.0589 639.535 36.0589C647.499 36.0589 655.463 36.4864 663.427 36.629C664.565 36.629 665.703 37.1991 666.983 37.1991C679.64 36.629 692.297 36.0589 705.949 35.3462C703.958 32.0682 701.967 28.9326 700.118 25.7971C706.234 28.3625 710.073 35.0612 718.322 33.6359C727.423 32.0682 725.006 22.519 731.405 18.8133C730.125 22.519 728.846 26.3672 727.566 30.0728C726.001 34.9187 726.997 36.7715 732.685 36.914C755.582 37.7692 778.478 39.1944 801.375 40.1921C805.072 40.3346 808.912 39.7645 812.61 39.907C819.151 39.907 825.835 40.0496 832.377 40.3346C839.203 40.4771 846.03 41.1898 852.856 40.9047C859.682 40.4771 860.536 38.3393 857.265 32.0682C856.269 30.0728 855.274 28.22 854.278 26.2246C854.989 25.9396 855.7 25.512 856.269 25.227Z" fill="#4E87D0" fill-opacity="0.2"/>
</svg>
