<svg width="158" height="107" viewBox="0 0 158 107" fill="none" xmlns="http://www.w3.org/2000/svg">
  <path d="M135.255 43.2666C142.129 45.5067 147.588 49.4779 151.631 55.1801C155.877 60.6787 158 66.9918 158 74.1196C158 83.0802 154.866 90.7171 148.599 97.0303C142.331 103.343 134.75 106.5 125.854 106.5C117.161 106.5 109.579 103.343 103.109 97.0303C96.842 90.7171 93.7083 83.0802 93.7083 74.1196C93.7083 66.3809 94.9213 59.0495 97.3474 52.1254C99.9757 45.2012 103.109 38.8881 106.749 33.1859C110.59 27.4837 114.33 22.5961 117.969 18.5231C121.811 14.2464 125.045 10.8862 127.674 8.44236C130.302 5.99856 131.818 4.67483 132.223 4.47118L137.075 0.5L152.238 12.4135L146.173 18.5231C139.501 25.4472 135.862 33.695 135.255 43.2666ZM41.547 43.2666C48.421 45.5067 53.8797 49.4779 57.9232 55.1801C62.1689 60.6787 64.2917 66.9918 64.2917 74.1196C64.2917 83.0802 61.158 90.7171 54.8906 97.0303C48.6232 103.343 41.0416 106.5 32.1459 106.5C23.4523 106.5 15.8708 103.343 9.40115 97.0303C3.13372 90.7171 0 83.0802 0 74.1196C0 66.3809 1.21305 59.0495 3.63916 52.1254C6.26743 45.2012 9.40115 38.8881 13.0403 33.1859C16.8816 27.4837 20.6219 22.5961 24.261 18.5231C28.1024 14.2464 31.3372 10.8862 33.9655 8.44236C36.5937 5.99856 38.11 4.67483 38.5144 4.47118L43.3666 0.5L58.5298 12.4135L52.4645 18.5231C45.7927 25.4472 42.1535 33.695 41.547 43.2666Z" fill="#EEF4FC"/>
</svg>
