<svg width="1200" height="64" viewBox="0 0 1200 64" fill="none" xmlns="http://www.w3.org/2000/svg">
<path d="M706.802 11.721C708.082 14.1439 709.22 16.1393 710.5 18.2772C711.069 18.2772 711.496 18.1346 712.064 18.1346C712.775 14.0014 713.344 9.86819 714.055 5.73496C714.624 5.59244 715.193 5.59243 715.904 5.44991C716.473 7.87283 717.184 10.2958 717.326 12.8612C718.037 20.9852 722.019 25.4034 730.268 25.831C734.676 26.1161 739.227 25.2609 743.778 25.4034C753.591 25.546 763.546 25.9735 773.359 26.2586C776.487 26.4011 779.474 26.4011 782.602 26.2586C801.232 25.831 819.862 25.831 838.35 24.6908C851.007 23.9782 863.664 21.5552 876.321 19.8449C877.175 19.7024 878.028 19.1323 879.023 18.8473C889.689 16.1393 889.689 16.1393 885.565 6.30505C890.685 8.30041 893.245 16.9944 899.644 10.5808C908.319 22.5529 920.265 24.4058 933.349 22.6954C936.336 22.2679 939.464 21.2702 942.451 21.2702C959.943 21.1277 977.435 21.2702 994.928 21.2702C1012.7 21.2702 1030.48 21.2702 1048.12 20.9852C1050.68 20.9852 1053.24 19.7024 1057.5 18.5622C1051.81 12.4336 1047.4 7.58778 1042.85 2.5994C1043.42 2.0293 1043.99 1.31668 1044.7 0.746582C1047.83 3.73961 1050.96 6.73264 1053.95 10.0107C1062.05 18.7048 1072.15 18.2772 1079.69 9.15556C1081.82 6.59011 1084.1 4.3097 1086.23 1.88678C1086.8 2.17183 1087.22 2.45688 1087.79 2.74193C1084.66 7.58778 1081.54 12.4336 1078.41 17.137C1078.83 17.8496 1079.26 18.4197 1079.69 19.1323C1119.22 18.4197 1158.76 17.5645 1198.44 16.8519C1201.14 24.1207 1200 25.6885 1191.61 25.4034C1173.97 24.6908 1156.34 23.5506 1138.56 23.6931C1121.36 23.8357 1104.15 25.4034 1086.94 26.2586C1083.1 26.4011 1081.25 28.1114 1082.25 32.2446C1082.67 34.24 1082.82 36.3779 1083.1 38.5158C1082.39 38.6583 1081.68 38.9433 1080.97 39.0858C1079.4 35.3802 1077.98 31.6745 1076.84 28.9666C1072.01 29.2516 1067.74 29.5367 1062.62 29.8217C1064.9 33.5274 1067.17 37.5181 1069.45 41.3663C1068.74 41.7938 1068.17 42.3639 1067.46 42.7915C1064.9 39.7985 1061.91 36.948 1060.06 33.5274C1056.65 27.1137 1051.81 24.8333 1044.84 25.6885C1041.86 26.1161 1038.73 26.6862 1035.74 26.8287C1026.36 27.1137 1016.97 27.3988 1007.58 27.5413C1001.19 27.6838 994.928 27.5413 988.528 27.5413C981.417 27.5413 974.449 27.5413 967.338 27.6838C961.65 27.8264 955.961 28.2539 950.273 28.3965C943.731 28.6815 937.047 28.6815 930.505 29.1091C927.518 29.3941 924.674 30.3918 919.981 31.6745C915.288 28.539 908.888 26.2586 902.489 33.5274C901.351 34.8101 898.507 35.0951 896.516 34.8101C881.157 33.3848 881.157 33.2423 868.357 41.7938C869.637 38.6583 870.348 36.5204 871.628 33.3848C869.068 32.6722 866.793 31.3895 864.375 31.3895C853.14 31.1044 841.763 31.247 830.529 31.1044C827.258 31.1044 823.844 31.1044 820.574 31.247C813.036 31.532 805.641 31.8171 798.104 32.2446C796.682 32.2446 795.259 32.9573 793.837 32.8147C775.918 32.3872 758 31.9596 740.081 31.3895C738.374 31.3895 736.81 30.9619 735.103 30.9619C728.988 31.1044 727.992 32.8147 730.41 38.3732C731.121 39.7985 731.832 41.3662 732.259 42.934C732.401 43.3616 731.548 44.0742 731.121 44.7868C730.41 44.5018 729.414 44.5018 729.272 44.0742C726.57 36.5204 722.873 32.2446 714.766 38.6583C713.771 39.3709 711.069 38.6583 709.505 37.9456C699.549 33.8124 695.568 34.6676 687.888 42.934C687.177 43.6467 686.039 43.9317 683.479 45.2144C687.888 36.6629 683.195 36.3779 677.649 34.8101C666.698 31.532 656.317 32.9573 645.508 34.525C636.549 35.8078 627.163 34.24 617.919 33.9549C612.088 33.8124 605.973 33.2423 600.284 34.24C587.485 36.0928 574.97 37.0905 562.171 34.3825C558.758 33.6699 554.634 35.8078 550.936 36.6629C549.798 36.948 548.518 38.2307 547.807 37.9456C540.555 34.6676 535.008 39.7985 528.893 41.7938C524.058 43.2191 519.649 45.4995 514.814 41.5088C514.103 40.9387 510.405 42.5064 509.694 43.9317C508.13 47.0673 507.845 50.7729 506.565 54.051C505.712 56.4739 504.148 58.6118 503.01 60.7497C502.299 60.4646 501.446 60.1796 500.735 59.8945C501.588 55.4762 502.299 50.9154 503.294 46.4972C504.432 41.3662 503.721 37.3755 497.464 37.0905C490.495 36.6629 483.527 36.0928 476.416 36.2353C462.479 36.3779 448.542 37.233 434.605 37.3755C415.975 37.6606 397.345 37.5181 378.857 37.6606C376.013 37.6606 373.027 38.0882 370.325 37.5181C359.232 35.0951 348.993 35.5227 339.322 42.7915C336.62 44.7869 331.216 45.0719 328.087 43.7892C322.541 41.6513 321.403 44.2167 320.265 48.35C318.843 53.4809 317.137 58.4693 315.43 63.4577C314.435 63.1726 313.439 62.8876 312.444 62.745C313.439 58.7543 314.15 54.7636 315.288 50.7729C317.99 41.6513 317.705 41.7938 308.888 39.2284C300.213 36.8054 291.823 35.8078 283.005 38.0882C279.592 38.9433 275.895 38.9433 272.339 38.9433C256.269 39.3709 240.199 40.0835 224.129 39.7985C204.788 39.5134 185.589 37.8031 166.248 37.8031C158.71 37.8031 151.173 40.2261 143.778 42.0789C137.947 43.6467 132.828 47.9224 126.286 44.2168C125.432 43.7892 121.877 46.7822 120.739 48.7776C118.18 53.6234 116.331 58.7543 114.198 63.8852C113.202 63.4576 112.207 63.1726 111.211 62.745C112.775 58.4693 114.055 53.9085 116.046 49.7752C118.748 44.2167 117.326 40.7961 111.353 40.226C102.82 39.5134 94.1454 39.2284 85.4704 39.2284C74.2355 39.2284 62.8584 39.7985 51.6235 40.226C43.3751 40.5111 35.1267 40.5111 26.8783 40.7962C18.3455 41.0812 9.95484 41.6513 0.853159 42.0789C0.568731 38.8008 0.426517 36.6629 0.14209 33.0998C6.68392 33.0998 12.5147 33.2423 18.3455 33.0998C37.5443 32.5297 56.601 31.8171 75.7998 31.532C84.7593 31.3895 93.7188 32.2446 102.678 31.6745C111.922 31.1044 112.775 29.1091 109.505 20.415C108.367 17.5645 107.798 14.429 107.087 11.436C107.94 11.1509 108.793 10.7233 109.647 10.4383C111.069 14.0014 112.775 17.5645 114.055 21.2702C115.62 25.9735 118.322 28.6815 123.441 27.9689C130.552 26.8287 137.521 25.4034 144.631 24.1207C146.622 23.8356 148.613 23.6931 152.453 23.4081C150.035 26.2586 148.898 27.6838 147.618 29.2516C148.329 29.5367 148.898 30.1068 149.467 30.1068C157.715 30.3918 165.963 30.5343 174.07 30.6769C176.629 30.6769 179.331 30.1068 181.891 30.2493C204.646 30.9619 227.258 31.8171 250.012 32.2446C256.411 32.3872 262.669 31.1044 269.068 30.8194C275.61 30.5343 282.294 30.9619 288.836 30.5343C296.373 30.1068 303.769 29.3941 311.164 27.9689C312.728 27.6838 314.15 24.2632 314.719 22.1254C315.572 18.5622 315.43 14.714 316.568 10.5808C319.128 18.5622 325.954 18.1346 331.785 19.7024C333.776 20.2725 336.051 21.2702 337.331 22.838C344.726 32.6722 355.108 30.5343 365.205 30.1068C366.627 30.1068 368.049 29.5367 369.471 29.5367C385.968 29.9642 402.323 30.5343 418.819 30.9619C425.646 31.1044 432.614 31.532 439.156 30.3918C452.951 27.9689 466.461 25.6885 480.54 29.3941C486.798 31.1044 494.193 28.824 502.299 28.1114C499.455 21.1277 497.464 16.4243 495.615 11.5785C496.326 11.1509 497.179 10.7233 497.89 10.4383C499.455 13.1463 501.303 15.7117 502.441 18.7048C504.574 24.6908 508.414 26.5436 514.529 25.4034C521.782 24.1207 528.466 24.6908 536.004 26.9712C544.252 29.5367 553.78 28.9666 562.74 28.824C596.587 28.539 630.434 28.3965 664.281 27.2563C676.511 26.8287 688.741 24.1207 700.687 21.4127C702.963 20.4151 704.527 15.1416 706.802 11.721Z" fill="#4E87D0" fill-opacity="0.2"/>
</svg>
